<svg xmlns="http://www.w3.org/2000/svg" viewBox="0 0 19.95 19.95"><defs><style>.cls-1{fill:#999;}</style></defs><title>Asset 17</title><g id="Layer_2" data-name="Layer 2"><g id="Layer_1-2" data-name="Layer 1"><path class="cls-1" d="M15.3,0H4.65A4.65,4.65,0,0,0,0,4.65V15.3A4.65,4.65,0,0,0,4.65,20H15.3A4.65,4.65,0,0,0,20,15.3V4.65A4.65,4.65,0,0,0,15.3,0Zm2,13.15a4.17,4.17,0,0,1-4.17,4.17H6.8a4.17,4.17,0,0,1-4.17-4.17V6.8A4.17,4.17,0,0,1,6.8,2.63h6.35A4.17,4.17,0,0,1,17.32,6.8Z"/><path class="cls-1" d="M10,7.53A2.45,2.45,0,1,0,12.42,10,2.45,2.45,0,0,0,10,7.53Z"/><path class="cls-1" d="M13.15,4H6.8A2.84,2.84,0,0,0,4,6.8v6.35A2.84,2.84,0,0,0,6.8,16h6.35A2.84,2.84,0,0,0,16,13.15V6.8A2.84,2.84,0,0,0,13.15,4ZM10,13.75A3.78,3.78,0,1,1,13.75,10,3.77,3.77,0,0,1,10,13.75ZM13.89,7a.89.89,0,1,1,.88-.89A.89.89,0,0,1,13.89,7Z"/></g></g></svg>