<svg xmlns="http://www.w3.org/2000/svg" viewBox="0 0 21.81 21.81"><defs><style>.cls-1{fill:#fff;}</style></defs><title>Asset 43</title><g id="Layer_2" data-name="Layer 2"><g id="Layer_1-2" data-name="Layer 1"><path class="cls-1" d="M16.72,0H5.08A5.09,5.09,0,0,0,0,5.08V16.72a5.09,5.09,0,0,0,5.08,5.09H16.72a5.09,5.09,0,0,0,5.09-5.09V5.08A5.09,5.09,0,0,0,16.72,0Zm2.21,14.38a4.55,4.55,0,0,1-4.55,4.55h-7a4.55,4.55,0,0,1-4.55-4.55v-7A4.55,4.55,0,0,1,7.43,2.88h7a4.55,4.55,0,0,1,4.55,4.55Z"/><path class="cls-1" d="M10.9,8.23a2.68,2.68,0,1,0,2.68,2.67A2.68,2.68,0,0,0,10.9,8.23Z"/><path class="cls-1" d="M14.38,4.33h-7a3.1,3.1,0,0,0-3.1,3.1v7a3.1,3.1,0,0,0,3.1,3.1h7a3.1,3.1,0,0,0,3.1-3.1v-7A3.1,3.1,0,0,0,14.38,4.33ZM10.9,15A4.13,4.13,0,1,1,15,10.9,4.14,4.14,0,0,1,10.9,15ZM15.18,7.6a1,1,0,1,1,1-1A1,1,0,0,1,15.18,7.6Z"/></g></g></svg>