<svg xmlns="http://www.w3.org/2000/svg" viewBox="0 0 51.51 51.52"><defs><style>.cls-1{fill:#fff;}</style></defs><title>Asset 14</title><g id="Layer_2" data-name="Layer 2"><g id="Layer_1-2" data-name="Layer 1"><path class="cls-1" d="M1.53,3.07H50A1.54,1.54,0,0,0,50,0H1.53a1.54,1.54,0,0,0,0,3.07Z"/><path class="cls-1" d="M50,48.46H1.53A1.53,1.53,0,0,0,0,50H0a1.53,1.53,0,0,0,1.53,1.53H50A1.52,1.52,0,0,0,51.51,50h0A1.52,1.52,0,0,0,50,48.46Z"/><path class="cls-1" d="M50,24.23H1.53a1.53,1.53,0,1,0,0,3.06H50a1.53,1.53,0,0,0,0-3.06Z"/></g></g></svg>