<svg xmlns="http://www.w3.org/2000/svg" viewBox="0 0 24.86 19.97"><defs><style>.cls-1{fill:#fff;}</style></defs><title>Asset 44</title><g id="Layer_2" data-name="Layer 2"><g id="Layer_1-2" data-name="Layer 1"><path class="cls-1" d="M12.13,6.13A14.8,14.8,0,0,1,1.63,1a5.21,5.21,0,0,0,1.6,6.71A7.58,7.58,0,0,1,1,7a4.79,4.79,0,0,0,4,5,4,4,0,0,1-2.25,0A4.78,4.78,0,0,0,7.46,15.6,10.87,10.87,0,0,1,0,17.73a14.73,14.73,0,0,0,14.72.56c8.36-4.07,7.55-13.37,7.55-13.37a7.65,7.65,0,0,0,2.59-2.55A8.59,8.59,0,0,1,22,3.12,5.39,5.39,0,0,0,24.18.35a8.39,8.39,0,0,1-3.29,1.21,5.32,5.32,0,0,0-6.14-1A5,5,0,0,0,12.13,6.13Z"/></g></g></svg>