<svg xmlns="http://www.w3.org/2000/svg" viewBox="0 0 22.74 18.27"><defs><style>.cls-1{fill:#999;}</style></defs><title>Asset 18</title><g id="Layer_2" data-name="Layer 2"><g id="Layer_1-2" data-name="Layer 1"><path class="cls-1" d="M11.1,5.61A13.54,13.54,0,0,1,1.49.87,4.75,4.75,0,0,0,3,7a6.59,6.59,0,0,1-2-.58A4.38,4.38,0,0,0,4.57,11a3.73,3.73,0,0,1-2.06,0,4.38,4.38,0,0,0,4.32,3.24A10,10,0,0,1,0,16.22a13.46,13.46,0,0,0,13.46.52C21.12,13,20.37,4.51,20.37,4.51a7,7,0,0,0,2.37-2.34,7.82,7.82,0,0,1-2.59.68,5,5,0,0,0,2-2.53,7.74,7.74,0,0,1-3,1.1A4.86,4.86,0,0,0,13.5.55,4.53,4.53,0,0,0,11.1,5.61Z"/></g></g></svg>